<?xml version="1.0" standalone="no"?>
<!DOCTYPE svg PUBLIC "-//W3C//DTD SVG 20010904//EN"
 "http://www.w3.org/TR/2001/REC-SVG-20010904/DTD/svg10.dtd">
<svg version="1.0" xmlns="http://www.w3.org/2000/svg"
 width="100.000000pt" height="100.000000pt" viewBox="0 0 100.000000 100.000000"
 preserveAspectRatio="xMidYMid meet">

<g transform="translate(0.000000,103.000000) scale(0.100000,-0.100000)"
fill="#000000" stroke="none">
<path d="M30 775 l0 -235 50 0 50 0 0 -140 0 -140 110 0 110 0 0 -75 0 -75
255 0 255 0 0 75 0 75 60 0 60 0 0 240 0 240 -60 0 -60 0 0 75 0 75 -105 0
-105 0 0 60 0 60 -310 0 -310 0 0 -235z m560 145 l0 -30 -120 0 -120 0 0 -75
0 -75 -110 0 -110 0 0 -70 c0 -63 -2 -70 -20 -70 -19 0 -20 7 -20 175 l0 175
250 0 250 0 0 -30z m0 -135 l0 -45 -90 0 -90 0 0 45 0 45 90 0 90 0 0 -45z
m210 0 l0 -45 -75 0 -75 0 0 45 0 45 75 0 75 0 0 -45z m-450 -145 l0 -40 -80
0 -80 0 0 40 0 40 80 0 80 0 0 -40z m240 0 l0 -40 -90 0 -90 0 0 40 0 40 90 0
90 0 0 -40z m210 -140 l0 -180 -195 0 -195 0 0 110 0 110 120 0 120 0 0 70 0
70 75 0 75 0 0 -180z m120 0 l0 -180 -30 0 -30 0 0 180 0 180 30 0 30 0 0
-180z m-570 -70 l0 -110 -80 0 -80 0 0 110 0 110 80 0 80 0 0 -110z m450 -215
l0 -45 -195 0 -195 0 0 45 0 45 195 0 195 0 0 -45z"/>
</g>
</svg>
